<?xml version="1.0" encoding="UTF-8"?><svg id="Layer_1" xmlns="http://www.w3.org/2000/svg" viewBox="0 0 192.27 192.27"><defs><style>.cls-1{fill:#0402fb;}.cls-2{fill:#fff;}</style></defs><ellipse class="cls-2" cx="96.15" cy="96.15" rx="105.72" ry="85.43" transform="translate(-39.83 96.15) rotate(-45)"/><path class="cls-1" d="M97.11,187.43l-15.67-34.65c-1.98-4.49-3.75-7.4-5.31-8.74-2.11-1.75-4.51-2.63-7.18-2.63h-2.59v46.02l-.06,4.23c10.29,1.1,21.07.37,31.85-2.12l-1.05-2.1Z"/><path class="cls-1" d="M170.83,21.32C137.51-12.01,77.02-5.56,35.73,35.73-5.56,77.02-12.01,137.51,21.32,170.83c4.7,4.7,9.95,8.61,15.6,11.75v-108.54h48.85c9.06,0,15.98.93,20.77,2.78,4.79,1.86,8.65,5.3,11.58,10.32,2.93,5.03,4.4,11.15,4.4,18.37,0,6.29-1.12,11.72-3.37,16.28-2.24,4.56-5.33,8.26-9.26,11.1-2.5,1.81-5.93,3.3-10.29,4.49,3.49,1.39,6.03,2.79,7.63,4.18,1.08.93,2.64,2.92,4.69,5.96s3.42,5.39,4.11,7.04l10.45,24.2c10.59-5.69,20.74-13.15,29.94-22.35,41.29-41.29,47.74-101.77,14.41-135.1Z"/><path class="cls-1" d="M86.49,118.44c1.94-.46,3.53-1.65,4.76-3.56,1.23-1.91,1.84-4.1,1.84-6.57,0-3.66-.97-6.47-2.91-8.43-1.94-1.96-5.59-2.94-10.93-2.94h-12.88v23.05h12.36c1.34,0,3.92-.52,7.76-1.55Z"/></svg>